<?xml version="1.0" standalone="no"?>
<!DOCTYPE svg PUBLIC "-//W3C//DTD SVG 20010904//EN"
 "http://www.w3.org/TR/2001/REC-SVG-20010904/DTD/svg10.dtd">
<svg version="1.0" xmlns="http://www.w3.org/2000/svg"
 width="1080.000000pt" height="1080.000000pt" viewBox="0 0 1080.000000 1080.000000"
 preserveAspectRatio="xMidYMid meet">
<metadata>
Created by potrace 1.14, written by Peter Selinger 2001-2017
</metadata>
<g transform="translate(0.000000,1080.000000) scale(0.100000,-0.100000)"
fill="#000000" stroke="none">
<path d="M0 5400 l0 -5400 5400 0 5400 0 0 5400 0 5400 -5400 0 -5400 0 0
-5400z m6265 4725 c415 -65 684 -228 811 -491 45 -94 46 -99 304 -1252 134
-595 210 -956 204 -962 -5 -5 -200 -53 -434 -106 -234 -54 -426 -98 -427 -98
0 -1 24 -112 55 -247 l56 -246 30 7 c17 4 212 49 433 100 222 51 406 90 409
87 9 -8 476 -2038 471 -2043 -2 -2 -196 -48 -432 -102 -236 -54 -430 -103
-432 -108 -3 -10 102 -472 109 -480 3 -2 198 40 434 95 236 55 432 96 436 93
4 -4 116 -479 249 -1057 239 -1038 242 -1051 242 -1165 1 -239 -89 -428 -302
-632 -324 -311 -932 -571 -1691 -722 -69 -14 -128 -22 -131 -18 -6 6 -704
2988 -711 3037 -2 15 17 30 93 71 340 182 617 457 768 761 153 309 188 639
105 1012 -46 205 -128 401 -237 560 -72 107 -252 284 -366 360 -252 168 -554
265 -906 292 -82 7 -153 15 -157 18 -8 7 -711 3051 -706 3056 8 8 328 85 453
109 172 33 373 62 515 75 63 6 133 13 155 15 92 9 504 -4 600 -19z m-1779
-1805 c326 -1407 351 -1526 336 -1538 -9 -7 -63 -39 -120 -70 -164 -91 -277
-177 -423 -322 -232 -230 -358 -455 -419 -748 -81 -383 14 -871 235 -1202 260
-389 732 -638 1310 -691 72 -6 131 -12 132 -13 11 -9 701 -3052 695 -3058 -14
-14 -345 -95 -520 -127 -332 -62 -470 -75 -792 -75 -310 -1 -385 7 -574 55
-334 85 -564 277 -658 549 -10 30 -174 725 -363 1545 -625 2708 -1296 5629
-1311 5703 -60 312 87 622 411 868 328 249 875 475 1470 607 88 20 169 38 180
40 11 3 29 4 39 4 18 -2 55 -156 372 -1527z m1126 -1705 c177 -31 371 -111
527 -218 97 -66 252 -220 320 -317 101 -144 180 -325 218 -503 26 -118 25
-411 -1 -522 -78 -333 -265 -618 -531 -808 -110 -78 -294 -163 -431 -198 -98
-26 -145 -32 -270 -36 -170 -6 -272 5 -407 43 -221 62 -408 173 -577 343 -255
257 -381 562 -381 926 -1 341 122 647 360 898 194 203 450 342 720 391 104 19
348 20 453 1z"/>
<path d="M5311 5536 c-93 -34 -155 -123 -155 -226 0 -146 121 -254 264 -237
156 19 245 162 199 318 -36 118 -186 189 -308 145z"/>
</g>
</svg>
